<?xml version="1.0" encoding="UTF-8" standalone="no"?>
<!-- Created with Inkscape (http://www.inkscape.org/) -->
<svg xmlns:dc="http://purl.org/dc/elements/1.1/" xmlns:cc="http://creativecommons.org/ns#" xmlns:rdf="http://www.w3.org/1999/02/22-rdf-syntax-ns#" xmlns:svg="http://www.w3.org/2000/svg" xmlns="http://www.w3.org/2000/svg" xmlns:xlink="http://www.w3.org/1999/xlink" xmlns:sodipodi="http://sodipodi.sourceforge.net/DTD/sodipodi-0.dtd" xmlns:inkscape="http://www.inkscape.org/namespaces/inkscape" width="48px" height="48px" id="svg2477" sodipodi:version="0.32" inkscape:version="0.46" sodipodi:docname="gqsynk.svg" inkscape:output_extension="org.inkscape.output.svg.inkscape" inkscape:export-filename="/home/azcapone/gqsynk.png" inkscape:export-xdpi="480" inkscape:export-ydpi="480">
  <defs id="defs2479">
    <linearGradient id="linearGradient3299">
      <stop style="stop-color: rgb(164, 0, 0); stop-opacity: 1;" offset="0" id="stop3301"/>
      <stop style="stop-color: rgb(239, 41, 41); stop-opacity: 1;" offset="1" id="stop3303"/>
    </linearGradient>
    <linearGradient id="linearGradient3275">
      <stop style="stop-color: rgb(78, 154, 6); stop-opacity: 1;" offset="0" id="stop3277"/>
      <stop style="stop-color: rgb(138, 226, 52); stop-opacity: 1;" offset="1" id="stop3279"/>
    </linearGradient>
    <inkscape:perspective sodipodi:type="inkscape:persp3d" inkscape:vp_x="0 : 24 : 1" inkscape:vp_y="0 : 1000 : 0" inkscape:vp_z="48 : 24 : 1" inkscape:persp3d-origin="24 : 16 : 1" id="perspective2485"/>
    <linearGradient inkscape:collect="always" xlink:href="#linearGradient3275" id="linearGradient3289" x1="2.8429971" y1="24.658352" x2="46.774258" y2="38.557968" gradientUnits="userSpaceOnUse" gradientTransform="translate(-0.555985, -0.096058)"/>
    <linearGradient inkscape:collect="always" xlink:href="#linearGradient3299" id="linearGradient3313" x1="46.096523" y1="11.488935" x2="7.2066917" y2="21.126001" gradientUnits="userSpaceOnUse"/>
    <linearGradient inkscape:collect="always" xlink:href="#linearGradient3275" id="linearGradient3321" gradientUnits="userSpaceOnUse" gradientTransform="translate(-0.555985, -0.096058)" x1="2.8429971" y1="24.658352" x2="46.774258" y2="38.557968"/>
    <linearGradient inkscape:collect="always" xlink:href="#linearGradient3299" id="linearGradient3323" gradientUnits="userSpaceOnUse" x1="46.096523" y1="11.488935" x2="7.2066917" y2="21.126001"/>
    <filter inkscape:collect="always" id="filter3387" x="-0.39303427" width="1.7860685" y="-2.0868248" height="5.1736497">
      <feGaussianBlur inkscape:collect="always" stdDeviation="6.7680807" id="feGaussianBlur3389"/>
    </filter>
  </defs>
  <sodipodi:namedview id="base" pagecolor="#ffffff" bordercolor="#666666" borderopacity="1.0" inkscape:pageopacity="0.0" inkscape:pageshadow="2" inkscape:zoom="10.791667" inkscape:cx="24" inkscape:cy="24" inkscape:current-layer="layer1" showgrid="true" inkscape:grid-bbox="true" inkscape:document-units="px">
    <inkscape:grid type="xygrid" id="grid2492"/>
  </sodipodi:namedview>
  <metadata id="metadata2482">
    <rdf:RDF>
      <cc:Work rdf:about="">
        <dc:format>image/svg+xml</dc:format>
        <dc:type rdf:resource="http://purl.org/dc/dcmitype/StillImage"/>
      </cc:Work>
    </rdf:RDF>
  </metadata>
  <g id="layer1" inkscape:label="Layer 1" inkscape:groupmode="layer">
    <path sodipodi:type="arc" style="opacity: 1; fill: rgb(46, 52, 54); fill-opacity: 1; stroke: none; stroke-width: 1; stroke-miterlimit: 4; stroke-dasharray: none; stroke-opacity: 1; filter: url(#filter3387);" id="path3325" sodipodi:cx="24.092665" sodipodi:cy="42.718147" sodipodi:rx="20.664093" sodipodi:ry="3.891892" d="M 44.756758,42.718147 A 20.664093,3.891892 0 1 1 3.4285717,42.718147 A 20.664093,3.891892 0 1 1 44.756758,42.718147 z" transform="matrix(0.738095, 0, 0, 0.200397, 6.21732, 35.9722)"/>
    <path id="path2221" style="fill: rgb(52, 101, 164); fill-opacity: 1; fill-rule: evenodd; stroke: rgb(114, 159, 207); stroke-width: 1px; stroke-linecap: butt; stroke-linejoin: miter; stroke-opacity: 1;" d="M 37.274436,12.469655 L 42.017449,8.2912848 C 42.155447,7.8569258 42.049566,7.5229839 41.735126,7.2749232 C 37.134098,4.5972336 32.111904,3.2883417 26.659116,3.3788769 C 19.837865,2.9724122 6.8467763,5.6439518 3.8474748,22.125078 C 3.6406337,23.830749 3.7039174,25.530424 3.9604041,27.150416 C 4.7410034,34.191038 6.7258552,42.090159 23.214784,44.485005 C 24.758149,44.705642 26.110939,44.714679 27.703708,44.520296 C 32.622014,44.096937 37.656369,43.246837 42.553858,41.979395 L 42.469164,32.175751 L 44.276027,30.030102 L 32.531421,30.030102 L 28.691836,32.175751 L 36.766257,32.119285 L 36.822722,41.040674 C 35.638962,41.546734 34.860107,42.168482 32.700811,42.395818 C 30.964898,42.515987 29.034346,42.538842 26.997903,42.508747 C 15.77259,40.095282 11.569138,33.44641 9.7762407,25.343554 C 9.1148857,22.814332 9.3292977,20.577032 9.5503867,18.341959 C 11.288173,11.594648 15.163809,5.6162264 23.948823,4.9598803 L 26.376795,4.9598803 C 29.9311,5.9742223 33.681147,6.4992069 36.427467,9.5335038 L 36.992112,11.396833 C 36.797277,11.888234 36.934479,12.327788 37.274436,12.469655 z"/>
    <g id="g3315" transform="matrix(0.874461, 0, 0, 0.874461, 2.77175, 2.7677)">
      <path sodipodi:nodetypes="cccccscc" d="M 33.636617,27.076477 L 33.62541,23.560884 L 43.123679,31.793992 L 33.640657,40.019305 L 33.621077,36.537522 L 5.1499472,36.568606 L 5.1754265,26.903942 L 33.636617,27.076477 z" style="fill: url(#linearGradient3321) rgb(0, 0, 0); fill-opacity: 1; fill-rule: evenodd; stroke: rgb(78, 154, 6); stroke-width: 1; stroke-linecap: butt; stroke-linejoin: miter; stroke-miterlimit: 4; stroke-dasharray: none; stroke-opacity: 1;" id="path2496"/>
      <path sodipodi:nodetypes="cccccccc" id="path3291" d="M 34.621621,28.062243 L 6.2045195,27.923247 L 6.1853281,35.568035 L 34.621621,35.533285 L 34.633204,37.838305 L 41.61776,31.803556 L 34.633204,25.722475 L 34.621621,28.062243 z" style="opacity: 0.2; fill: none; fill-rule: evenodd; stroke: rgb(238, 238, 236); stroke-width: 1px; stroke-linecap: butt; stroke-linejoin: miter; stroke-opacity: 1;"/>
      <path id="path3293" style="fill: url(#linearGradient3323) rgb(0, 0, 0); fill-opacity: 1; fill-rule: evenodd; stroke: rgb(164, 0, 0); stroke-width: 1; stroke-linecap: butt; stroke-linejoin: miter; stroke-miterlimit: 4; stroke-dasharray: none; stroke-opacity: 1;" d="M 14.915001,12.057172 L 14.926208,8.541579 L 5.4279395,16.774687 L 14.910961,25 L 14.930541,21.518217 L 43.401671,21.549301 L 43.376192,11.884637 L 14.915001,12.057172 z" sodipodi:nodetypes="cccccscc"/>
      <path style="opacity: 0.2; fill: none; fill-rule: evenodd; stroke: rgb(238, 238, 236); stroke-width: 1px; stroke-linecap: butt; stroke-linejoin: miter; stroke-opacity: 1;" d="M 13.929997,13.042938 L 42.347099,12.903942 L 42.36629,20.54873 L 13.929997,20.51398 L 13.918414,22.819 L 6.9338585,16.784251 L 13.918414,10.70317 L 13.929997,13.042938 z" id="path3295" sodipodi:nodetypes="cccccccc"/>
    </g>
  </g>
</svg>