<?xml version="1.0" encoding="UTF-8" standalone="no"?>
<!-- Created with Inkscape (http://www.inkscape.org/) -->
<svg
   xmlns:svg="http://www.w3.org/2000/svg"
   xmlns="http://www.w3.org/2000/svg"
   version="1.0"
   width="33"
   height="48"
   id="svg5413">
  <defs
     id="defs5415" />
  <g
     id="layer1">
    <path
       d="M 31.073978,1.9647624 L 26.179603,6.1281231 L 23.560186,20.983577 L 26.870285,23.974252 L 28.912079,22.281403 L 32.243964,3.3852222 L 31.073978,1.9647624 z"
       id="path5201"
       style="fill:#18ea8f;fill-opacity:1;fill-rule:evenodd;stroke:#000000;stroke-width:1.03902519;stroke-linecap:butt;stroke-linejoin:bevel;stroke-miterlimit:4;stroke-dasharray:none;stroke-opacity:1" />
    <path
       d="M 11.63642,0.54584101 L 9.9671097,1.9649345 L 13.394399,6.1292312 L 26.179883,6.1292312 L 31.072989,1.9649345 L 29.906866,0.54584101 L 11.63642,0.54584101 z"
       id="path5203"
       style="fill:#18ea8f;fill-opacity:1;fill-rule:evenodd;stroke:#000000;stroke-width:1.03902519;stroke-linecap:butt;stroke-linejoin:bevel;stroke-miterlimit:4;stroke-dasharray:none;stroke-opacity:1" />
    <path
       d="M 10.775014,20.984567 L 6.4091284,23.973122 L 9.7210891,26.961689 L 22.506573,26.961689 L 26.869726,23.973122 L 23.560498,20.984567 L 10.775014,20.984567 z"
       id="path5205"
       style="fill:#18ea8f;fill-opacity:1;fill-rule:evenodd;stroke:#000000;stroke-width:1.03902519;stroke-linecap:butt;stroke-linejoin:bevel;stroke-miterlimit:4;stroke-dasharray:none;stroke-opacity:1" />
    <path
       d="M 23.31267,45.981503 L 19.88651,41.818132 L 22.505927,26.962678 L 26.870683,23.972003 L 28.315489,25.664863 L 24.983593,44.561033 L 23.31267,45.981503 z"
       id="path5209"
       style="fill:#18ea8f;fill-opacity:1;fill-rule:evenodd;stroke:#000000;stroke-width:1.03902519;stroke-linecap:butt;stroke-linejoin:bevel;stroke-miterlimit:4;stroke-dasharray:none;stroke-opacity:1" />
    <path
       d="M 3.374721,47.400403 L 2.2058652,45.98132 L 7.1017149,41.817013 L 19.887198,41.817013 L 23.311744,45.98132 L 21.645167,47.400403 L 3.374721,47.400403 z"
       id="path5211"
       style="fill:#18ea8f;fill-opacity:1;fill-rule:evenodd;stroke:#000000;stroke-width:1.03902519;stroke-linecap:butt;stroke-linejoin:bevel;stroke-miterlimit:4;stroke-dasharray:none;stroke-opacity:1" />
  </g>
</svg>
