<?xml version="1.0" encoding="UTF-8" standalone="no"?>
<!-- Created with Inkscape (http://www.inkscape.org/) -->
<svg
   xmlns:svg="http://www.w3.org/2000/svg"
   xmlns="http://www.w3.org/2000/svg"
   xmlns:xlink="http://www.w3.org/1999/xlink"
   version="1.0"
   width="48"
   height="48"
   id="svg2">
  <defs
     id="defs4">
    <linearGradient
       id="linearGradient4128">
      <stop
         id="stop4130"
         style="stop-color:#4556f9;stop-opacity:1"
         offset="0" />
      <stop
         id="stop4132"
         style="stop-color:#9eaeff;stop-opacity:1"
         offset="1" />
    </linearGradient>
    <linearGradient
       id="linearGradient4122">
      <stop
         id="stop4124"
         style="stop-color:#5160e7;stop-opacity:1"
         offset="0" />
      <stop
         id="stop4126"
         style="stop-color:#ebeeff;stop-opacity:1"
         offset="1" />
    </linearGradient>
    <linearGradient
       x1="328.29688"
       y1="300.83264"
       x2="311.12427"
       y2="167.49251"
       id="linearGradient3384"
       xlink:href="#linearGradient4122"
       gradientUnits="userSpaceOnUse"
       gradientTransform="matrix(0.1588712,0,0,0.1588712,-29.29051,-20.73875)" />
    <linearGradient
       x1="335.98904"
       y1="318.00458"
       x2="350.52292"
       y2="440.20972"
       id="linearGradient3386"
       xlink:href="#linearGradient4128"
       gradientUnits="userSpaceOnUse"
       gradientTransform="matrix(0.1588712,0,0,0.1588712,-29.274736,-20.738168)" />
  </defs>
  <g
     transform="matrix(1.0669714,0,0,1.0669714,-1.607314,-1.607314)"
     id="g3376">
    <g
       id="g3354">
      <path
         d="M 24,2.9830436 C 12.395068,2.9830446 2.9688905,12.409221 2.9688905,24.014153 C 2.9688905,24.989934 3.038152,25.93246 3.1670302,26.873025 C 4.5699115,37.119674 13.370064,45.016951 24,45.016957 C 35.604933,45.016957 45.031109,35.619086 45.03111,24.014153 C 45.03111,20.609936 44.205023,17.377137 42.766656,14.531755 C 39.302755,7.6740533 32.203079,2.9830436 24,2.9830436 z"
         id="path2521"
         style="fill:url(#linearGradient3384);fill-opacity:1;fill-rule:evenodd;stroke:none;stroke-width:6.30000019;stroke-linecap:butt;stroke-linejoin:miter;stroke-miterlimit:0;stroke-dasharray:none;stroke-opacity:1" />
      <path
         d="M 42.776594,14.539419 C 39.606409,15.071813 38.109768,15.106575 32.06373,17.879678 C 26.017693,20.652782 18.715953,25.504088 13.092497,26.410079 C 7.4690415,27.316069 6.6115879,27.305641 3.1779389,26.876763 C 4.5808196,37.123412 13.375029,45.027796 24.004965,45.027802 C 35.609896,45.027802 45.030578,35.60712 45.030579,24.002187 C 45.030579,20.597969 44.21496,17.384801 42.776594,14.539419 z"
         id="path3174"
         style="fill:url(#linearGradient3386);fill-opacity:1;fill-rule:evenodd;stroke:none;stroke-width:6.30000019;stroke-linecap:butt;stroke-linejoin:miter;stroke-miterlimit:0;stroke-dasharray:none;stroke-opacity:1" />
      <path
         d="M 45.023428,24 C 45.02662,35.613175 35.613176,45.029208 24.000001,45.029208 C 12.386823,45.029208 2.9733804,35.613175 2.9765721,24 C 2.9733804,12.386824 12.386823,2.9707916 24.000001,2.9707916 C 35.613176,2.9707916 45.02662,12.386824 45.023428,24 L 45.023428,24 z"
         id="path3196"
         style="fill:none;fill-opacity:1;fill-rule:evenodd;stroke:#1d4dff;stroke-width:1.2074213;stroke-linecap:butt;stroke-linejoin:miter;stroke-miterlimit:0;stroke-dasharray:none;stroke-opacity:1" />
      <path
         d="M 46.009252,24 C 46.012594,36.157737 36.157738,46.015304 24.000001,46.015304 C 11.842261,46.015304 1.9874058,36.157737 1.9907472,24 C 1.9874058,11.842262 11.842261,1.9846956 24.000001,1.9846956 C 36.157738,1.9846956 46.012594,11.842262 46.009252,24 L 46.009252,24 z"
         id="path3344"
         style="fill:none;fill-opacity:1;fill-rule:evenodd;stroke:#ffffff;stroke-width:0.76940715;stroke-linecap:butt;stroke-linejoin:miter;stroke-miterlimit:0;stroke-dasharray:none;stroke-opacity:1" />
    </g>
    <path
       d="M 16.132673,12.539137 L 26.05807,18.269568 L 35.983469,23.999999 L 26.05807,29.730431 L 16.132673,35.460863 L 16.132673,23.999999 L 16.132673,12.539137 z"
       id="path5434"
       style="fill:#ffffff;fill-opacity:1;stroke:none;stroke-width:6.30000019;stroke-miterlimit:0;stroke-dasharray:none;stroke-opacity:1" />
  </g>
</svg>
