<?xml version="1.0" encoding="UTF-8" standalone="no"?>
<!-- Created with Inkscape (http://www.inkscape.org/) -->
<svg
   xmlns:svg="http://www.w3.org/2000/svg"
   xmlns="http://www.w3.org/2000/svg"
   xmlns:xlink="http://www.w3.org/1999/xlink"
   version="1.0"
   width="48"
   height="48"
   id="svg2">
  <defs
     id="defs4">
    <linearGradient
       id="linearGradient4122">
      <stop
         id="stop4124"
         style="stop-color:#242aa8;stop-opacity:1"
         offset="0" />
      <stop
         id="stop4126"
         style="stop-color:#e2e2e2;stop-opacity:1"
         offset="1" />
    </linearGradient>
    <linearGradient
       x1="309.85953"
       y1="187.25856"
       x2="357.5864"
       y2="366.61591"
       id="linearGradient3492"
       xlink:href="#linearGradient4122"
       gradientUnits="userSpaceOnUse"
       gradientTransform="matrix(0.169511,0,0,0.169511,-32.85945,-23.734967)" />
  </defs>
  <path
     d="M 24,1.5755082 C 11.617869,1.5755093 1.5604073,11.63297 1.5604073,24.0151 C 1.5604073,25.056231 1.6343073,26.061879 1.7718166,27.065435 C 3.2686509,37.998317 12.658162,46.424485 24,46.424492 C 36.382131,46.424492 46.439591,36.397232 46.439592,24.0151 C 46.439592,20.382898 45.558181,16.933594 44.023485,13.897653 C 40.327602,6.5806814 32.75245,1.5755082 24,1.5755082 z"
     id="path2521"
     style="fill:url(#linearGradient3492);fill-opacity:1;fill-rule:evenodd;stroke:none;stroke-width:6.30000019;stroke-linecap:butt;stroke-linejoin:miter;stroke-miterlimit:0;stroke-dasharray:none;stroke-opacity:1" />
  <path
     d="M 46.431396,24 C 46.434802,36.390925 36.390926,46.437563 24.000001,46.437563 C 11.609072,46.437563 1.5651978,36.390925 1.5686033,24 C 1.5651978,11.609073 11.609072,1.5624357 24.000001,1.5624357 C 36.390926,1.5624357 46.434802,11.609073 46.431396,24 L 46.431396,24 z"
     id="path3196"
     style="fill:none;fill-opacity:1;fill-rule:evenodd;stroke:#1d4dff;stroke-width:1.28828394;stroke-linecap:butt;stroke-linejoin:miter;stroke-miterlimit:0;stroke-dasharray:none;stroke-opacity:1" />
  <path
     d="M 47.483242,24 C 47.486808,36.971957 36.971958,47.489699 24.000001,47.489699 C 11.02804,47.489699 0.51319115,36.971957 0.51675633,24 C 0.51319115,11.028041 11.02804,0.51029944 24.000001,0.51029944 C 36.971958,0.51029944 47.486808,11.028041 47.483242,24 L 47.483242,24 z"
     id="path3344"
     style="fill:none;fill-opacity:1;fill-rule:evenodd;stroke:#ffffff;stroke-width:0.82093543;stroke-linecap:butt;stroke-linejoin:miter;stroke-miterlimit:0;stroke-dasharray:none;stroke-opacity:1" />
  <path
     d="M 15.605787,11.771587 L 26.195901,17.885793 L 36.786018,23.999999 L 26.195901,30.114206 L 15.605787,36.228413 L 15.605787,23.999999 L 15.605787,11.771587 z"
     id="path5434"
     style="fill:#ffffff;fill-opacity:1;stroke:none;stroke-width:6.30000019;stroke-miterlimit:0;stroke-dasharray:none;stroke-opacity:1" />
</svg>
