<?xml version="1.0" encoding="UTF-8" standalone="no"?>
<!-- Created with Inkscape (http://www.inkscape.org/) -->
<svg
   xmlns:svg="http://www.w3.org/2000/svg"
   xmlns="http://www.w3.org/2000/svg"
   xmlns:xlink="http://www.w3.org/1999/xlink"
   version="1.0"
   width="48"
   height="48"
   id="svg2">
  <defs
     id="defs4">
    <linearGradient
       id="linearGradient4128">
      <stop
         id="stop4130"
         style="stop-color:#4556f9;stop-opacity:1"
         offset="0" />
      <stop
         id="stop4132"
         style="stop-color:#9eaeff;stop-opacity:1"
         offset="1" />
    </linearGradient>
    <linearGradient
       id="linearGradient4122">
      <stop
         id="stop4124"
         style="stop-color:#5160e7;stop-opacity:1"
         offset="0" />
      <stop
         id="stop4126"
         style="stop-color:#ebeeff;stop-opacity:1"
         offset="1" />
    </linearGradient>
    <linearGradient
       x1="328.29688"
       y1="300.83264"
       x2="311.12427"
       y2="167.49251"
       id="linearGradient3384"
       xlink:href="#linearGradient4122"
       gradientUnits="userSpaceOnUse"
       gradientTransform="matrix(-0.1588712,0,0,0.1588712,77.29051,-20.73875)" />
    <linearGradient
       x1="335.98904"
       y1="318.00458"
       x2="350.52292"
       y2="440.20972"
       id="linearGradient3386"
       xlink:href="#linearGradient4128"
       gradientUnits="userSpaceOnUse"
       gradientTransform="matrix(-0.1588712,0,0,0.1588712,77.274737,-20.738168)" />
  </defs>
  <g
     transform="matrix(-1.0669714,0,0,1.0669714,49.607312,-1.607314)"
     id="g3354">
    <path
       d="M 24,2.9830436 C 35.604932,2.9830446 45.03111,12.409221 45.03111,24.014153 C 45.03111,24.989934 44.961849,25.93246 44.83297,26.873025 C 43.430089,37.119674 34.629936,45.016951 24,45.016957 C 12.395067,45.016957 2.9688915,35.619086 2.9688905,24.014153 C 2.9688905,20.609936 3.7949775,17.377137 5.2333445,14.531755 C 8.6972455,7.6740533 15.796921,2.9830436 24,2.9830436 z"
       id="path2521"
       style="fill:url(#linearGradient3384);fill-opacity:1;fill-rule:evenodd;stroke:none;stroke-width:6.30000019;stroke-linecap:butt;stroke-linejoin:miter;stroke-miterlimit:0;stroke-dasharray:none;stroke-opacity:1" />
    <path
       d="M 5.2234065,14.539419 C 8.3935915,15.071813 9.8902325,15.106575 15.93627,17.879678 C 21.982307,20.652782 29.284047,25.504088 34.907503,26.410079 C 40.530959,27.316069 41.388413,27.305641 44.822062,26.876763 C 43.419181,37.123412 34.624972,45.027796 23.995036,45.027802 C 12.390104,45.027802 2.9694225,35.60712 2.9694215,24.002187 C 2.9694215,20.597969 3.7850405,17.384801 5.2234065,14.539419 z"
       id="path3174"
       style="fill:url(#linearGradient3386);fill-opacity:1;fill-rule:evenodd;stroke:none;stroke-width:6.30000019;stroke-linecap:butt;stroke-linejoin:miter;stroke-miterlimit:0;stroke-dasharray:none;stroke-opacity:1" />
    <path
       d="M 45.023428,24 C 45.02662,35.613175 35.613176,45.029208 24.000001,45.029208 C 12.386823,45.029208 2.9733804,35.613175 2.9765721,24 C 2.9733804,12.386824 12.386823,2.9707916 24.000001,2.9707916 C 35.613176,2.9707916 45.02662,12.386824 45.023428,24 L 45.023428,24 z"
       id="path3196"
       style="fill:none;fill-opacity:1;fill-rule:evenodd;stroke:#1d4dff;stroke-width:1.2074213;stroke-linecap:butt;stroke-linejoin:miter;stroke-miterlimit:0;stroke-dasharray:none;stroke-opacity:1" />
    <path
       d="M 46.009252,24 C 46.012594,36.157737 36.157738,46.015304 24.000001,46.015304 C 11.842261,46.015304 1.9874058,36.157737 1.9907472,24 C 1.9874058,11.842262 11.842261,1.9846956 24.000001,1.9846956 C 36.157738,1.9846956 46.012594,11.842262 46.009252,24 L 46.009252,24 z"
       id="path3344"
       style="fill:none;fill-opacity:1;fill-rule:evenodd;stroke:#ffffff;stroke-width:0.76940715;stroke-linecap:butt;stroke-linejoin:miter;stroke-miterlimit:0;stroke-dasharray:none;stroke-opacity:1" />
  </g>
  <path
     d="M 26.397272,8.2705455 L 22.459772,9.7705455 L 19.803522,17.489296 L 13.897272,17.614296 L 11.116022,21.083046 L 18.678522,20.551796 L 16.491022,26.895546 L 10.428522,26.895546 L 7.7097722,30.645546 L 15.272272,29.989296 L 11.647272,40.083046 L 16.491022,37.833046 L 19.084772,29.770546 L 25.116022,29.333046 L 21.241022,40.083046 L 26.084772,37.833046 L 28.866022,29.051796 L 34.147272,28.645546 L 35.647272,26.895546 L 29.553522,26.895546 L 31.928522,19.489296 L 37.022272,19.114296 L 38.522272,17.270546 L 32.741022,17.270546 L 35.928522,8.2705455 L 31.928522,9.7705455 L 29.334772,17.270546 L 23.147272,17.395546 L 26.397272,8.2705455 z M 28.459772,19.770546 L 25.928522,26.895546 L 20.022272,26.895546 L 22.272272,20.208046 L 28.459772,19.770546 z"
     id="rect3224"
     style="fill:#ffffff;fill-opacity:1;stroke:none;stroke-width:0.40000001;stroke-miterlimit:0;stroke-dasharray:none;stroke-opacity:1" />
</svg>
