<?xml version="1.0" encoding="UTF-8" standalone="no"?>
<!-- Created with Inkscape (http://www.inkscape.org/) -->
<svg
   xmlns:svg="http://www.w3.org/2000/svg"
   xmlns="http://www.w3.org/2000/svg"
   xmlns:xlink="http://www.w3.org/1999/xlink"
   version="1.0"
   width="48"
   height="48"
   id="svg2">
  <defs
     id="defs4">
    <linearGradient
       id="linearGradient4122">
      <stop
         id="stop4124"
         style="stop-color:#242aa8;stop-opacity:1"
         offset="0" />
      <stop
         id="stop4126"
         style="stop-color:#e2e2e2;stop-opacity:1"
         offset="1" />
    </linearGradient>
    <linearGradient
       x1="309.85953"
       y1="187.25856"
       x2="357.5864"
       y2="366.61591"
       id="linearGradient3492"
       xlink:href="#linearGradient4122"
       gradientUnits="userSpaceOnUse"
       gradientTransform="matrix(0.169511,0,0,0.169511,-32.859451,-23.734967)" />
    <linearGradient
       x1="335.98904"
       y1="318.00458"
       x2="350.52292"
       y2="440.20972"
       id="linearGradient3386"
       xlink:href="#linearGradient4128"
       gradientUnits="userSpaceOnUse"
       gradientTransform="matrix(-0.1588712,0,0,0.1588712,77.274737,-20.738168)" />
    <linearGradient
       x1="328.29688"
       y1="300.83264"
       x2="311.12427"
       y2="167.49251"
       id="linearGradient3384"
       xlink:href="#linearGradient4122"
       gradientUnits="userSpaceOnUse"
       gradientTransform="matrix(-0.1588712,0,0,0.1588712,77.29051,-20.73875)" />
    <linearGradient
       id="linearGradient2716">
      <stop
         id="stop2718"
         style="stop-color:#5160e7;stop-opacity:1"
         offset="0" />
      <stop
         id="stop2720"
         style="stop-color:#ebeeff;stop-opacity:1"
         offset="1" />
    </linearGradient>
    <linearGradient
       id="linearGradient4128">
      <stop
         id="stop4130"
         style="stop-color:#4556f9;stop-opacity:1"
         offset="0" />
      <stop
         id="stop4132"
         style="stop-color:#9eaeff;stop-opacity:1"
         offset="1" />
    </linearGradient>
  </defs>
  <path
     d="M 23.999999,1.5755082 C 11.617868,1.5755093 1.5604063,11.63297 1.5604063,24.0151 C 1.5604063,25.056231 1.6343063,26.061879 1.7718153,27.065435 C 3.2686503,37.998317 12.658161,46.424485 23.999999,46.424492 C 36.38213,46.424492 46.43959,36.397232 46.439591,24.0151 C 46.439591,20.382898 45.55818,16.933594 44.023484,13.897653 C 40.327601,6.5806814 32.752449,1.5755082 23.999999,1.5755082 z"
     id="path2521"
     style="fill:url(#linearGradient3492);fill-opacity:1;fill-rule:evenodd;stroke:none;stroke-width:6.30000019;stroke-linecap:butt;stroke-linejoin:miter;stroke-miterlimit:0;stroke-dasharray:none;stroke-opacity:1" />
  <path
     d="M 1.5686023,24 C 1.5651963,36.390925 11.609072,46.437563 23.999997,46.437563 C 36.390926,46.437563 46.434801,36.390925 46.431395,24 C 46.434801,11.609073 36.390926,1.5624357 23.999997,1.5624357 C 11.609072,1.5624357 1.5651963,11.609073 1.5686023,24 L 1.5686023,24 z"
     id="path3196"
     style="fill:none;fill-opacity:1;fill-rule:evenodd;stroke:#1d4dff;stroke-width:1.28828394;stroke-linecap:butt;stroke-linejoin:miter;stroke-miterlimit:0;stroke-dasharray:none;stroke-opacity:1" />
  <path
     d="M 0.51675633,24 C 0.51319033,36.971957 11.02804,47.489699 23.999997,47.489699 C 36.971958,47.489699 47.486807,36.971957 47.483242,24 C 47.486807,11.028041 36.971958,0.51029944 23.999997,0.51029944 C 11.02804,0.51029944 0.51319033,11.028041 0.51675633,24 L 0.51675633,24 z"
     id="path3344"
     style="fill:none;fill-opacity:1;fill-rule:evenodd;stroke:#ffffff;stroke-width:0.82093543;stroke-linecap:butt;stroke-linejoin:miter;stroke-miterlimit:0;stroke-dasharray:none;stroke-opacity:1" />
  <path
     d="M 26.3975,8.2705004 L 22.46,9.7705004 L 19.80375,17.48925 L 13.897499,17.61425 L 11.116249,21.083 L 18.67875,20.55175 L 16.49125,26.8955 L 10.428749,26.8955 L 7.71,30.6455 L 15.272499,29.98925 L 11.647499,40.083 L 16.49125,37.833 L 19.085,29.7705 L 25.11625,29.333 L 21.24125,40.083 L 26.085,37.833 L 28.86625,29.05175 L 34.1475,28.6455 L 35.6475,26.8955 L 29.55375,26.8955 L 31.92875,19.48925 L 37.0225,19.11425 L 38.5225,17.2705 L 32.74125,17.2705 L 35.92875,8.2705004 L 31.92875,9.7705004 L 29.335,17.2705 L 23.1475,17.3955 L 26.3975,8.2705004 z M 28.46,19.7705 L 25.92875,26.8955 L 20.0225,26.8955 L 22.2725,20.208 L 28.46,19.7705 z"
     id="rect3224"
     style="fill:#ffffff;fill-opacity:1;stroke:none;stroke-width:0.40000001;stroke-miterlimit:0;stroke-dasharray:none;stroke-opacity:1" />
</svg>
