<?xml version="1.0" encoding="UTF-8" standalone="no"?>
<!-- Created with Inkscape (http://www.inkscape.org/) -->
<svg
   xmlns:svg="http://www.w3.org/2000/svg"
   xmlns="http://www.w3.org/2000/svg"
   version="1.0"
   width="33"
   height="48"
   id="svg5413">
  <defs
     id="defs5415" />
  <g
     id="layer1">
    <g
       transform="translate(4.4868726e-3,-0.1635809)"
       id="g5430">
      <path
         d="M 31.069491,2.1283433 L 26.175116,6.291704 L 23.555699,21.147158 L 26.865798,24.137833 L 28.907592,22.444984 L 32.239477,3.5488031 L 31.069491,2.1283433 z"
         id="path5201"
         style="fill:#18ea8f;fill-opacity:1;fill-rule:evenodd;stroke:#000000;stroke-width:1.03902519;stroke-linecap:butt;stroke-linejoin:bevel;stroke-miterlimit:4;stroke-dasharray:none;stroke-opacity:1" />
      <path
         d="M 11.631933,0.70942191 L 9.9626228,2.1285154 L 13.389912,6.2928121 L 26.175396,6.2928121 L 31.068502,2.1285154 L 29.902379,0.70942191 L 11.631933,0.70942191 z"
         id="path5203"
         style="fill:#18ea8f;fill-opacity:1;fill-rule:evenodd;stroke:#000000;stroke-width:1.03902519;stroke-linecap:butt;stroke-linejoin:bevel;stroke-miterlimit:4;stroke-dasharray:none;stroke-opacity:1" />
      <path
         d="M 10.770527,21.148148 L 6.4046415,24.136703 L 9.7166022,27.12527 L 22.502086,27.12527 L 26.865239,24.136703 L 23.556011,21.148148 L 10.770527,21.148148 z"
         id="path5205"
         style="fill:#18ea8f;fill-opacity:1;fill-rule:evenodd;stroke:#000000;stroke-width:1.03902519;stroke-linecap:butt;stroke-linejoin:bevel;stroke-miterlimit:4;stroke-dasharray:none;stroke-opacity:1" />
      <path
         d="M 9.9636125,2.1283433 L 13.389772,6.291704 L 10.770366,21.147158 L 6.405599,24.137833 L 4.960804,22.444984 L 8.292689,3.5488031 L 9.9636125,2.1283433 z"
         id="path5207"
         style="fill:#18ea8f;fill-opacity:1;fill-rule:evenodd;stroke:#000000;stroke-width:1.03902519;stroke-linecap:butt;stroke-linejoin:bevel;stroke-miterlimit:4;stroke-dasharray:none;stroke-opacity:1" />
      <path
         d="M 23.308183,46.145084 L 19.882023,41.981713 L 22.50144,27.126259 L 26.866196,24.135584 L 28.311002,25.828444 L 24.979106,44.724614 L 23.308183,46.145084 z"
         id="path5209"
         style="fill:#18ea8f;fill-opacity:1;fill-rule:evenodd;stroke:#000000;stroke-width:1.03902519;stroke-linecap:butt;stroke-linejoin:bevel;stroke-miterlimit:4;stroke-dasharray:none;stroke-opacity:1" />
      <path
         d="M 3.3702341,47.563984 L 2.2013783,46.144901 L 7.097228,41.980594 L 19.882711,41.980594 L 23.307257,46.144901 L 21.64068,47.563984 L 3.3702341,47.563984 z"
         id="path5211"
         style="fill:#18ea8f;fill-opacity:1;fill-rule:evenodd;stroke:#000000;stroke-width:1.03902519;stroke-linecap:butt;stroke-linejoin:bevel;stroke-miterlimit:4;stroke-dasharray:none;stroke-opacity:1" />
      <path
         d="M 2.2023143,46.145084 L 7.0966901,41.981713 L 9.7160966,27.126259 L 6.4060079,24.135584 L 4.3642138,25.828444 L 1.0323182,44.724614 L 2.2023143,46.145084 z"
         id="path5213"
         style="fill:#18ea8f;fill-opacity:1;fill-rule:evenodd;stroke:#000000;stroke-width:1.03902519;stroke-linecap:butt;stroke-linejoin:bevel;stroke-miterlimit:4;stroke-dasharray:none;stroke-opacity:1" />
    </g>
  </g>
</svg>
