/* XPM */
static char * qsolitaire_xpm[] = {
"24 24 120 2",
"  	c None",
". 	c #010101",
"+ 	c #141414",
"@ 	c #000000",
"# 	c #020202",
"$ 	c #242424",
"% 	c #808080",
"& 	c #414141",
"* 	c #191919",
"= 	c #060606",
"- 	c #3A3A3A",
"; 	c #404040",
"> 	c #3F3F3F",
", 	c #0E0E0E",
"' 	c #B8B8B8",
") 	c #C0C0C0",
"! 	c #E1E1E1",
"~ 	c #DDDDDD",
"{ 	c #D8D8D8",
"] 	c #D3D3D3",
"^ 	c #CFCFCF",
"/ 	c #CACACA",
"( 	c #C5C5C5",
"_ 	c #C8C8C8",
": 	c #DEDEDE",
"< 	c #999999",
"[ 	c #CBCBCB",
"} 	c #AFAFAF",
"| 	c #323232",
"1 	c #080808",
"2 	c #DFDFDF",
"3 	c #D9D9D9",
"4 	c #D4D4D4",
"5 	c #CECECE",
"6 	c #C3C3C3",
"7 	c #BDBDBD",
"8 	c #B7B7B7",
"9 	c #B1B1B1",
"0 	c #D5D5D5",
"a 	c #222222",
"b 	c #818181",
"c 	c #C1C1C1",
"d 	c #BBBBBB",
"e 	c #9D9D9D",
"f 	c #B35F55",
"g 	c #A6382C",
"h 	c #A5372B",
"i 	c #C2AFAC",
"j 	c #B06F68",
"k 	c #A23428",
"l 	c #A13327",
"m 	c #AB8480",
"n 	c #B4B4B4",
"o 	c #DADADA",
"p 	c #070707",
"q 	c #BF8781",
"r 	c #9B1202",
"s 	c #A9463A",
"t 	c #C4B7B5",
"u 	c #B27770",
"v 	c #A23C30",
"w 	c #AD9390",
"x 	c #B9807A",
"y 	c #C8C6C6",
"z 	c #A43D31",
"A 	c #A02A1D",
"B 	c #B6AFAE",
"C 	c #212121",
"D 	c #0D0D0D",
"E 	c #B26F67",
"F 	c #9C1707",
"G 	c #B69C98",
"H 	c #1F1F1F",
"I 	c #7F7F7F",
"J 	c #AD564B",
"K 	c #9B1404",
"L 	c #AE675F",
"M 	c #1E1E1E",
"N 	c #0C0C0C",
"O 	c #9C1505",
"P 	c #A33428",
"Q 	c #BDBCBC",
"R 	c #1D1D1D",
"S 	c #C2C2C2",
"T 	c #7B7B7B",
"U 	c #A1291B",
"V 	c #BB928E",
"W 	c #B28580",
"X 	c #D1D1D1",
"Y 	c #0A0A0A",
"Z 	c #E8E8E8",
"` 	c #E5E5E5",
" .	c #C0857E",
"..	c #AC493D",
"+.	c #A43023",
"@.	c #D0CECE",
"#.	c #F3F3F3",
"$.	c #1B1B1B",
"%.	c #787878",
"&.	c #050505",
"*.	c #E9E9E9",
"=.	c #C9908A",
"-.	c #D8BAB6",
";.	c #CB9690",
">.	c #1A1A1A",
",.	c #838383",
"'.	c #090909",
").	c #D1A8A3",
"!.	c #B65E53",
"~.	c #E4DAD9",
"{.	c #E2D5D3",
"].	c #A42A1C",
"^.	c #A32A1C",
"/.	c #AE4539",
"(.	c #DBC3C0",
"_.	c #D6B6B2",
":.	c #040404",
"<.	c #B0B0B0",
"[.	c #131313",
"}.	c #030303",
"                                                ",
"                                                ",
"                      . + . @                   ",
"                    # $ % % & @ @               ",
"      * = - ; ; ; > > > > , ; ' - @ @           ",
"      . ) ! ~ { ] ^ / ( _ : # < [ } | @ @       ",
"      1 2 3 4 5 _ 6 7 8 9 0 a b c d ) e @       ",
"      1 2 f g h i j k l m ] a b c d n o #       ",
"      p 2 q r s t u r v w ] a b c d 8 % @       ",
"      p 2 3 r x y z A B 9 ] C b c d ^ D @       ",
"      p 2 3 r x E F G 8 9 ] H b c 7 I @         ",
"      = 2 3 r J K L 7 8 9 ] M b c ^ N           ",
"      = 2 3 r r O P Q 8 9 ] R b S T @           ",
"      = ! 3 r U V r W 8 9 3 R b X Y             ",
"      = Z ` r  .3 ..+.@.{ #.$.b %..             ",
"      &.*.*.r =.*.-.r ;.*.#.>.,.'.              ",
"      &.*.).r !.~.{.].^.).#.>.$ .               ",
"      &.*./.r r (._.r r /.#.* @                 ",
"      :.*.*.*.*.*.*.*.*.*.#.+ .                 ",
"      @ <.*.*.*.*.*.*.*.*.c @                   ",
"      [.@ &.&.&.:.:.:.}.}.@ 1                   ",
"                                                ",
"                                                ",
"                                                "};
